<svg width="18" height="18" viewBox="0 0 18 18" fill="none" xmlns="http://www.w3.org/2000/svg">
<g clip-path="url(#clip0_412_313)">
<path d="M6.27029 0.591952C4.47181 1.21586 2.92081 2.40006 1.84509 3.97061C0.769378 5.54116 0.225656 7.41528 0.29379 9.31769C0.361924 11.2201 1.03832 13.0505 2.22364 14.5401C3.40895 16.0297 5.04069 17.0999 6.8792 17.5935C8.36972 17.9781 9.93134 17.995 11.4298 17.6427C12.7873 17.3378 14.0423 16.6856 15.072 15.7499C16.1437 14.7463 16.9216 13.4697 17.322 12.0571C17.7573 10.521 17.8347 8.90561 17.5484 7.33492H9.17842V10.807H14.0258C13.9289 11.3607 13.7213 11.8892 13.4154 12.3609C13.1095 12.8326 12.7116 13.2377 12.2455 13.552C11.6535 13.9435 10.9863 14.2069 10.2865 14.3254C9.58475 14.4559 8.8649 14.4559 8.16311 14.3254C7.45181 14.1783 6.77893 13.8848 6.18732 13.4634C5.23691 12.7906 4.52328 11.8348 4.14826 10.7324C3.76691 9.60938 3.76691 8.39187 4.14826 7.26883C4.41521 6.48163 4.8565 5.76489 5.4392 5.17211C6.10603 4.48128 6.95026 3.98748 7.87926 3.74487C8.80826 3.50226 9.78614 3.52023 10.7056 3.7968C11.4239 4.01728 12.0807 4.40252 12.6237 4.9218C13.1703 4.37805 13.7159 3.83289 14.2606 3.28633C14.5419 2.99242 14.8484 2.71258 15.1254 2.41164C14.2966 1.64028 13.3236 1.04006 12.2623 0.64539C10.3297 -0.0563432 8.21511 -0.0752016 6.27029 0.591952Z" fill="black"/>
<path d="M6.27053 0.592147C8.21518 -0.07546 10.3298 -0.057098 12.2626 0.644179C13.324 1.04153 14.2965 1.64464 15.1243 2.41887C14.843 2.7198 14.5463 3.00105 14.2594 3.29355C13.7138 3.83824 13.1687 4.38105 12.624 4.92199C12.0809 4.40272 11.4241 4.01748 10.7058 3.79699C9.78668 3.51945 8.80883 3.50045 7.87959 3.74207C6.95034 3.98368 6.10559 4.47658 5.43803 5.16668C4.85532 5.75946 4.41403 6.4762 4.14709 7.2634L1.23193 5.00637C2.27538 2.93716 4.08205 1.35437 6.27053 0.592147Z" fill="#E33629"/>
<path d="M0.458551 7.24229C0.615237 6.46575 0.875368 5.71373 1.23199 5.00635L4.14714 7.269C3.76579 8.39204 3.76579 9.60956 4.14714 10.7326C3.17589 11.4826 2.20418 12.2363 1.23199 12.9938C0.339231 11.2168 0.066956 9.19205 0.458551 7.24229Z" fill="#F8BD00"/>
<path d="M9.17836 7.3335H17.5484C17.8347 8.90418 17.7572 10.5196 17.322 12.0557C16.9215 13.4682 16.1436 14.7449 15.072 15.7485C14.1312 15.0144 13.1862 14.286 12.2454 13.5519C12.7118 13.2373 13.1099 12.8318 13.4158 12.3596C13.7217 11.8875 13.9292 11.3584 14.0257 10.8041H9.17836C9.17695 9.64818 9.17836 8.49084 9.17836 7.3335Z" fill="#587DBD"/>
<path d="M1.23047 12.9937C2.20266 12.2437 3.17437 11.4899 4.14562 10.7324C4.52139 11.8352 5.23604 12.791 6.1875 13.4634C6.78095 13.8828 7.45528 14.174 8.1675 14.3184C8.8693 14.4489 9.58914 14.4489 10.2909 14.3184C10.9907 14.1999 11.6579 13.9365 12.2498 13.5449C13.1906 14.279 14.1356 15.0074 15.0764 15.7415C14.0469 16.6777 12.7918 17.3304 11.4342 17.6357C9.93573 17.988 8.37411 17.9711 6.88359 17.5865C5.70474 17.2717 4.60361 16.7169 3.64922 15.9566C2.63905 15.1546 1.814 14.1439 1.23047 12.9937Z" fill="#319F43"/>
</g>
<defs>
<clipPath id="clip0_412_313">
<rect width="18" height="18" fill="white"/>
</clipPath>
</defs>
</svg>
